<svg width="75" height="75" viewBox="0 0 75 75" fill="none" xmlns="http://www.w3.org/2000/svg">
<path d="M11 67.7856V57.2144H12.309V67.7856H11ZM21.9875 67.7856L17.0416 58.5014C17.0723 59.7425 17.0874 61.2591 17.0874 62.5V67.7856H15.7784V57.2144H17.7874L22.7329 66.4984C22.7027 65.2581 22.6875 63.7409 22.6875 62.5V57.2144H23.9655L23.996 67.7856H21.9875ZM35.1207 62.5C35.1207 59.7425 33.8268 58.0421 31.6201 58.0421C29.4141 58.0421 28.1205 59.7425 28.1205 62.5C28.1205 65.2425 29.4141 66.9583 31.6201 66.9583C33.8268 66.9583 35.1207 65.2425 35.1207 62.5ZM36.5817 62.5C36.5817 65.7174 34.816 68 31.6201 68C28.425 68 26.6596 65.7174 26.6596 62.5C26.6596 59.2677 28.425 57 31.6201 57C34.816 57 36.5817 59.2677 36.5817 62.5ZM46.2146 60.1404H44.8144C44.6927 58.8077 43.917 58.0421 42.5931 58.0421C41.4822 58.0421 40.5994 58.5626 40.5994 59.6657C40.5994 60.8149 41.254 61.3052 42.8515 61.6729C45.1652 62.2092 46.3211 63.159 46.3211 64.9513C46.3211 66.8051 44.7386 68 42.7148 68C40.4018 68 38.9409 66.8205 38.7121 64.7826H40.1125C40.4166 66.1769 41.3757 66.9583 42.7448 66.9583C43.9474 66.9583 44.9215 66.2994 44.9215 65.1963C44.9215 63.9097 44.191 63.3271 42.3496 62.8983C40.493 62.4691 39.1994 61.719 39.1994 59.9723C39.1994 58.1492 40.7669 57 42.6996 57C44.8757 57 46.0166 58.3327 46.2146 60.1404ZM49.1064 67.7856V57.2144H50.415V67.7856H49.1064ZM61.5392 62.5C61.5392 59.7425 60.2453 58.0421 58.0386 58.0421C55.8321 58.0421 54.539 59.7425 54.539 62.5C54.539 65.2425 55.8321 66.9583 58.0386 66.9583C60.2453 66.9583 61.5392 65.2425 61.5392 62.5ZM63 62.5C63 65.7174 61.2345 68 58.0386 68C54.8433 68 53.078 65.7174 53.078 62.5C53.078 59.2677 54.8433 57 58.0386 57C61.2345 57 63 59.2677 63 62.5Z" fill="#053742"/>
<path fill-rule="evenodd" clip-rule="evenodd" d="M52.7422 9.64708C53.2027 9.64708 53.6093 9.42274 53.8542 9.07985H60.8713C61.192 9.07985 61.452 9.3338 61.452 9.64708V50.109C61.452 50.4225 61.1917 50.6766 60.8708 50.6763L54.0965 50.67C53.776 50.6698 53.5164 50.4159 53.5164 50.1028V41.5851C53.5164 41.3933 53.4173 41.2147 53.2532 41.1101L46.2141 36.6223C46.021 36.4993 45.7717 36.4994 45.5787 36.6227L43.8389 37.7351V20.9623C43.8389 20.7409 43.7081 20.5396 43.5035 20.4462L36.5341 17.2634C36.3849 17.1952 36.2132 17.1924 36.0616 17.2558L27.9334 20.6558C27.7195 20.7452 27.5807 20.9513 27.5807 21.1794V26.5232C27.2296 26.7624 27 27.1596 27 27.6094C27 28.3404 27.6066 28.933 28.3549 28.933C29.1031 28.933 29.7097 28.3404 29.7097 27.6094C29.7097 27.1596 29.4801 26.7624 29.1291 26.5232V22.0316C29.1291 21.8035 29.3096 21.6069 29.5235 21.5174L36.0303 18.7954C36.1818 18.7321 36.3535 18.7348 36.5027 18.803L41.9142 21.2745C42.1188 21.368 42.2905 21.5267 42.2905 21.748V22.7879V23.9224V26.0968V30.4456V38.7249L37.2673 41.9358C37.0611 42.0676 36.9369 42.2922 36.9369 42.5329C36.9369 43.1001 37.5814 43.4407 38.0672 43.13L45.7643 38.2095C45.8445 38.1582 45.9482 38.1582 46.0283 38.2095L51.7027 41.8367C51.8666 41.9415 51.9655 42.12 51.9655 42.3113V51.4328C51.9655 51.7461 52.2254 52 52.5461 52H62.4193C62.7401 52 63 51.7461 63 51.4328V8.13446C63 7.82119 62.7401 7.56723 62.4193 7.56723H53.8542C53.6093 7.22434 53.2027 7 52.7422 7C51.9939 7 51.3874 7.59257 51.3874 8.32354C51.3874 9.05451 51.9939 9.64708 52.7422 9.64708ZM44.7906 48.0298H46.9518C47.2636 48.0298 47.5164 47.7824 47.5164 47.4775V45.7459C47.5164 45.4409 47.2636 45.1936 46.9518 45.1936H44.7906C44.4788 45.1936 44.226 45.4409 44.226 45.7459V47.4775C44.226 47.7824 44.4788 48.0298 44.7906 48.0298Z" fill="#053742"/>
<path fill-rule="evenodd" clip-rule="evenodd" d="M48.8856 9.64708C49.6291 9.64708 50.2318 9.05451 50.2318 8.32354C50.2318 7.59257 49.6291 7 48.8856 7C48.4281 7 48.024 7.22434 47.7808 7.56723H11.5769C11.2583 7.56723 11 7.82119 11 8.13446V51.4328C11 51.7461 11.2583 52 11.5769 52H22.1488C22.4674 52 22.7257 51.7461 22.7257 51.4328V31.9582C22.7257 31.6449 22.984 31.391 23.3027 31.391H33.8833C34.202 31.391 34.4602 31.6449 34.4602 31.9582V50.0638C34.4602 50.3771 34.202 50.6311 33.8833 50.6311H29.8466C29.528 50.6311 29.2697 50.3771 29.2697 50.0638V34.9352C29.6185 34.696 29.8466 34.2988 29.8466 33.849C29.8466 33.118 29.2439 32.5254 28.5005 32.5254C27.757 32.5254 27.1543 33.118 27.1543 33.849C27.1543 34.2992 27.3828 34.6968 27.732 34.9358L27.7389 51.433C27.739 51.7463 27.9973 52 28.3158 52H36.0007H39.323C39.6417 52 39.9 51.7461 39.9 51.4328V46.129C39.9 45.9374 39.9983 45.7591 40.161 45.6542L45.783 42.037C45.8728 41.9791 45.989 41.9791 46.0788 42.037L53.8773 47.0541C54.3598 47.3644 55 47.0241 55 46.4572C55 46.2165 54.8765 45.9921 54.6717 45.8603L46.2469 40.4398C46.055 40.3163 45.8069 40.3163 45.6149 40.4398L38.5813 44.965C38.4184 45.0698 38.3201 45.2482 38.3201 45.4396V50.0638C38.3201 50.3771 38.0619 50.6311 37.7432 50.6311H36.5776C36.2589 50.6311 36.0007 50.3771 36.0007 50.0638V48.9748V30.6347C36.0007 30.3214 35.7424 30.0674 35.4237 30.0674H21.7695C21.4509 30.0674 21.1926 30.3214 21.1926 30.6347V31.3526V32.6379V35.2084V40.3493V50.1096C21.1926 50.4229 20.9343 50.6768 20.6156 50.6768H13.1154C12.7968 50.6768 12.5385 50.4229 12.5385 50.1096V29.8275V19.4027V14.1903V11.5842V10.2811V9.64708C12.5385 9.3338 12.7968 9.07985 13.1154 9.07985H47.7808C48.024 9.42274 48.4281 9.64708 48.8856 9.64708Z" fill="#39A2DB"/>
</svg>
